<svg xmlns="http://www.w3.org/2000/svg" viewBox="0 0 112 72" role="img" aria-label="Pixel tooth socket" shape-rendering="crispEdges">
  <path d="M16 24H24V16H40V12H72V16H88V24H96V48H88V56H72V60H40V56H24V48H16V24Z" fill="#4b0505"/>
  <path d="M20 24H28V20H44V16H68V20H84V24H92V44H84V52H68V56H44V52H28V44H20V24Z" fill="#8f140e"/>
  <path d="M28 28H36V24H76V28H84V36H80V32H72V28H40V32H32V36H24V32H28V28Z" fill="#cf3b22"/>
  <path d="M28 40H36V44H76V40H84V44H80V48H72V52H40V48H32V44H24V40H28Z" fill="#2a0202"/>
  <path d="M40 32H72V36H80V44H72V48H40V44H32V36H40V32Z" fill="#140101"/>
</svg>
